<?xml version="1.0" encoding="utf-8"?>
	<svg class="bg_form" width="450px" height="450px" viewBox="0 0 450 450" xml:space="preserve">
		<defs>
			<linearGradient id="gradient" x1="0%" y1="0%" x2="100%" y2="100%">
			  <stop offset="0%" style="stop-color:#BAA80B;stop-opacity:1" />
			  <stop offset="100%" style="stop-color:#EBD302;stop-opacity:1" />
			</linearGradient>
		</defs>
		<g class='layer terre' data-depth="0.02">
			<circle fill="transparent" stroke="#FFFFFF" stroke-width="4" stroke-miterlimit="10" cx="227.914" cy="171.144" r="109.857"/>
			<path class="land" fill="#FFFFFF" d="M131.259,137.48v7.56c0,0.172,0.047,0.341,0.135,0.489l3.954,6.588
			c0.123,0.206,0.319,0.357,0.549,0.424l2.545,0.743c0.5,0.146,1.024-0.138,1.176-0.637l0.684-2.248
			c0.095-0.311,0.024-0.647-0.187-0.895l-4.948-5.797c-0.167-0.196-0.248-0.452-0.224-0.708l0.355-3.731
			c0.046-0.488,0.457-0.861,0.947-0.861h0.501c0.485,0,0.893,0.365,0.945,0.847l0.515,4.693c0.018,0.161,0.076,0.315,0.17,0.448
			l6.077,8.537c0.256,0.36,0.231,0.849-0.062,1.181l-1.333,1.511c-0.313,0.355-0.318,0.885-0.011,1.246l4.689,5.517
			c0.109,0.128,0.25,0.226,0.409,0.282l7.794,2.735c0.534,0.187,1.111-0.129,1.241-0.68l0.209-0.889
			c0.105-0.449,0.518-0.757,0.979-0.732l1.159,0.064c0.504,0.028,0.898,0.445,0.898,0.95v0.956c0,0.407,0.259,0.769,0.645,0.901
			l6.562,2.233c0.16,0.055,0.303,0.151,0.414,0.279l5.641,6.533c0.139,0.16,0.327,0.269,0.534,0.311l7.635,1.527
			c0.444,0.089,0.764,0.479,0.764,0.933v4.765c0,0.301-0.143,0.584-0.385,0.764l-4.216,3.128
			c-0.201,0.148-0.335,0.372-0.373,0.618l-1.616,10.433c-0.043,0.277,0.039,0.559,0.223,0.77l11.675,13.365
			c0.054,0.062,0.116,0.116,0.186,0.163l7.244,4.88c0.262,0.176,0.419,0.472,0.419,0.787v17.771c0,0.361,0.204,0.69,0.526,0.852
			l0.421,0.211c0.378,0.188,0.586,0.605,0.511,1.021l-1.364,7.504c-0.059,0.319,0.05,0.646,0.287,0.867l3.887,3.618
			c0.209,0.194,0.319,0.473,0.301,0.757l-0.582,9.026c-0.014,0.228,0.052,0.453,0.19,0.635l10.757,14.241
			c0.179,0.237,0.46,0.378,0.759,0.378h5.808c0.603,0,1.054-0.556,0.93-1.145l-0.504-2.42c-0.033-0.156-0.105-0.305-0.21-0.427
			l-3.396-3.939c-0.248-0.286-0.301-0.691-0.138-1.033l1.54-3.206c0.062-0.129,0.094-0.27,0.094-0.412v-0.917
			c0-0.448-0.314-0.836-0.752-0.93l-3.002-0.643c-0.407-0.088-0.711-0.43-0.748-0.845l-0.041-0.445
			c-0.033-0.367,0.147-0.719,0.465-0.906l1.632-0.959c0.329-0.194,0.511-0.567,0.46-0.946l-0.157-1.173
			c-0.047-0.355-0.291-0.654-0.63-0.772l-3.093-1.075l0.428-0.75c0.131-0.229,0.351-0.395,0.608-0.455l7.389-1.738
			c0.19-0.045,0.362-0.146,0.492-0.293l6.242-7.003c0.039-0.043,0.073-0.091,0.104-0.141l4.281-7.105
			c0.045-0.074,0.08-0.153,0.102-0.235l0.699-2.515c0.066-0.239,0.037-0.495-0.084-0.713l-1.307-2.378
			c-0.156-0.282-0.158-0.624-0.006-0.907l1.857-3.468c0.17-0.317,0.502-0.511,0.863-0.503l5.434,0.137
			c0.209,0.006,0.412-0.058,0.582-0.181l3.986-2.886c0.223-0.162,0.365-0.411,0.389-0.686l1.203-13.235
			c0.018-0.185,0.088-0.36,0.203-0.506l5.164-6.493c0.133-0.169,0.207-0.377,0.207-0.592v-1.698c0-0.399-0.248-0.755-0.623-0.893
			l-3.787-1.388c-0.221-0.082-0.406-0.244-0.516-0.453l-1.488-2.851c-0.15-0.292-0.443-0.484-0.771-0.51l-11.877-0.898
			c-0.109-0.008-0.213-0.035-0.311-0.078l-5.317-2.335c-0.396-0.173-0.625-0.593-0.557-1.022l0.616-3.815
			c0.039-0.239-0.017-0.484-0.152-0.685l-2.834-4.185c-0.178-0.262-0.473-0.417-0.788-0.417h-6.402
			c-0.337,0-0.649-0.179-0.819-0.47l-2.392-4.081c-0.019-0.031-0.039-0.061-0.06-0.09l-2.317-3.09
			c-0.289-0.383-0.816-0.492-1.233-0.255l-1.342,0.768c-0.098,0.056-0.205,0.094-0.315,0.112l-5.811,0.968
			c-0.406,0.068-0.809-0.133-0.999-0.498l-1.365-2.617c-0.137-0.263-0.39-0.448-0.683-0.497l-5.508-0.941
			c-0.327-0.056-0.659,0.063-0.877,0.313l-4.716,5.409c-0.203,0.232-0.506,0.352-0.813,0.321l-7.98-0.812
			c-0.498-0.051-0.871-0.478-0.855-0.978l0.265-8.195c0.014-0.438-0.273-0.829-0.695-0.947l-4.949-1.381
			c-0.587-0.164-0.872-0.832-0.581-1.368l1.366-2.522c0.083-0.154,0.122-0.327,0.113-0.501l-0.069-1.381
			c-0.035-0.702-0.795-1.125-1.411-0.784l-7.215,3.994c-0.211,0.117-0.458,0.149-0.691,0.091l-4.185-1.046
			c-0.325-0.081-0.583-0.328-0.681-0.649l-1.183-3.945c-0.058-0.19-0.053-0.393,0.011-0.58l2.164-6.349
			c0.074-0.218,0.225-0.402,0.425-0.517l6.582-3.803c0.158-0.092,0.339-0.135,0.521-0.127l12.204,0.581
			c0.477,0.022,0.863,0.395,0.903,0.871l0.217,2.615c0.02,0.231,0.122,0.446,0.289,0.606l2.509,2.413
			c0.562,0.54,1.499,0.212,1.603-0.56l0.965-7.233c0.034-0.265,0.181-0.503,0.4-0.656l9.092-6.306
			c0.247-0.171,0.397-0.447,0.409-0.747l0.124-3.36c0.01-0.282,0.145-0.544,0.368-0.717l12.261-9.502
			c0.046-0.036,0.089-0.077,0.128-0.12l4.562-5.132c0.271-0.305,0.704-0.403,1.08-0.245l1.795,0.756
			c0.356,0.15,0.768,0.069,1.041-0.205l0.093-0.092c0.391-0.391,0.368-1.031-0.05-1.393l-2.153-1.86
			c-0.33-0.284-0.425-0.756-0.229-1.145l0.199-0.397c0.162-0.323,0.49-0.526,0.851-0.526h2.997c0.549,0,0.983,0.462,0.95,1.011
			l-0.028,0.452c-0.036,0.57,0.436,1.043,1.006,1.009l3.645-0.221c0.32-0.019,0.609-0.198,0.769-0.477l0.739-1.294
			c0.169-0.296,0.484-0.479,0.824-0.479h0.188c0.482,0,0.889,0.361,0.944,0.839l0.141,1.192c0.047,0.398-0.16,0.783-0.519,0.962
			l-1.782,0.891c-0.445,0.222-0.645,0.752-0.455,1.212l0.583,1.416c0.12,0.29,0.374,0.501,0.68,0.567l6.894,1.487
			c0.416,0.09,0.84-0.107,1.039-0.482l0.561-1.05c0.215-0.403,0.113-0.901-0.242-1.188l-3.357-2.708
			c-0.225-0.18-0.354-0.452-0.354-0.741v-1.447c0-0.525,0.424-0.951,0.951-0.951h0.271c0.498,0,0.912-0.383,0.949-0.878
			l0.201-2.614c0.029-0.382-0.172-0.744-0.514-0.918l-4.182-2.155c-0.301-0.156-0.498-0.46-0.514-0.799l-0.219-4.495
			c-0.035-0.686-0.762-1.112-1.376-0.804l-4.488,2.244c-0.151,0.076-0.32,0.11-0.489,0.099l-1.011-0.067
			c-0.582-0.039-0.993-0.589-0.865-1.158l0.634-2.807c0.124-0.548-0.252-1.083-0.809-1.153l-3.809-0.477
			c-0.146-0.018-0.287-0.07-0.41-0.152l-1.589-1.06c-0.356-0.237-0.825-0.208-1.149,0.072l-2.664,2.299
			c-0.178,0.154-0.292,0.368-0.321,0.602l-0.813,6.502c-0.055,0.436-0.401,0.779-0.838,0.827l-3.041,0.337
			c-0.309,0.035-0.583,0.219-0.731,0.494l-2.683,4.963c-0.156,0.289-0.45,0.477-0.777,0.498l-0.968,0.06
			c-0.56,0.035-1.027-0.418-1.011-0.978l0.108-3.521c0.012-0.401-0.228-0.766-0.6-0.914l-7.238-2.868
			c-0.334-0.132-0.564-0.441-0.597-0.798l-0.208-2.287c-0.035-0.376,0.157-0.736,0.487-0.918l12.08-6.664
			c0.573-0.316,1.285,0.025,1.397,0.669l0.224,1.289c0.096,0.557,0.655,0.907,1.199,0.752l0.78-0.223
			c0.268-0.077,0.489-0.267,0.604-0.521l0.357-0.786c0.155-0.34,0.493-0.558,0.866-0.558h0.628c0.687,0,1.146-0.704,0.872-1.333
			l-0.098-0.224c-0.228-0.522,0.05-1.125,0.594-1.291l2.417-0.735c0.135-0.042,0.259-0.113,0.365-0.208l3.373-3.092
			c0.176-0.161,0.405-0.25,0.643-0.25h5.788c0.221,0,0.435,0.077,0.605,0.217l1.363,1.123c0.515,0.424,0.443,1.233-0.137,1.562
			l-4.92,2.785c-0.772,0.438-0.578,1.602,0.296,1.763l3.113,0.573c0.218,0.04,0.415,0.155,0.559,0.327l1.05,1.261
			c0.196,0.236,0.497,0.363,0.803,0.339l1.11-0.085c0.292-0.023,0.556-0.178,0.719-0.421l1.958-2.936
			c0.197-0.296,0.545-0.458,0.9-0.417l3.047,0.351c0.311,0.036,0.619-0.083,0.824-0.318l1.121-1.281
			c0.396-0.454,0.277-1.158-0.246-1.455l-2.146-1.213c-0.299-0.169-0.482-0.485-0.482-0.828v-2.202
			c0-0.352-0.195-0.675-0.504-0.84l-9.382-4.984c-0.169-0.09-0.361-0.126-0.552-0.105l-6.597,0.733
			c-0.161,0.018-0.314,0.076-0.446,0.169l-3.313,2.347c-0.187,0.133-0.32,0.329-0.374,0.552l-0.947,3.906
			c-0.129,0.532-0.678,0.846-1.202,0.687l-2.008-0.611c-0.4-0.122-0.673-0.492-0.673-0.91v-1.292c0-0.245,0.094-0.48,0.262-0.657
			l1.61-1.686c0.566-0.593,0.167-1.576-0.651-1.607l-5.584-0.215c-0.341-0.013-0.663,0.157-0.843,0.446l-0.739,1.182
			c-0.296,0.476-0.12,1.104,0.382,1.355l1.076,0.538c0.321,0.161,0.525,0.491,0.525,0.851v0.941c0,0.484-0.363,0.89-0.843,0.945
			l-4.449,0.509c-0.168,0.019-0.328,0.083-0.463,0.184l-2.051,1.538c-0.18,0.135-0.403,0.202-0.627,0.188l-4.068-0.243
			c-0.502-0.03-0.895-0.446-0.895-0.95v-1.33c0-0.457,0.324-0.849,0.773-0.934l4.747-0.911c0.174-0.034,0.336-0.115,0.466-0.235
			l2.667-2.463c0.548-0.505,0.328-1.416-0.391-1.615l-0.789-0.219c-0.266-0.074-0.552-0.028-0.783,0.125l-2.726,1.818
			c-0.156,0.104-0.34,0.16-0.528,0.16h-3.008c-0.272,0-0.533-0.117-0.713-0.322l-2.398-2.722
			c-0.161-0.183-0.386-0.297-0.627-0.318l-6.213-0.565c-0.248-0.023-0.493,0.052-0.686,0.209l-3.083,2.505
			c-0.645,0.523-0.356,1.562,0.465,1.68l2.125,0.303c0.631,0.09,0.997,0.766,0.727,1.344l-0.036,0.076
			c-0.266,0.571,0.087,1.24,0.709,1.341l5.051,0.822c0.326,0.053,0.601,0.272,0.728,0.577l0.385,0.938
			c0.252,0.613-0.184,1.29-0.847,1.312l-7.582,0.257c-0.258,0.009-0.507-0.087-0.693-0.266l-3.983-3.841
			c-0.108-0.105-0.241-0.182-0.386-0.226l-5.973-1.804c-16.828,11.861-30.172,28.329-38.203,47.57l0.441,5.297
			c0.027,0.326,0.22,0.615,0.51,0.766l3.301,1.711C131.061,136.8,131.259,137.125,131.259,137.48z"/>
			<path class="land" fill="#FFFFFF" d="M210.039,120.681l0.306,0.857c0.182,0.511,0.756,0.766,1.258,0.559l1.183-0.487
			c0.357-0.147,0.589-0.494,0.589-0.879v-1.113c0-0.34-0.182-0.654-0.476-0.823l-0.775-0.447c-0.45-0.26-1.023-0.111-1.291,0.334
			l-0.714,1.191C209.971,120.116,209.942,120.413,210.039,120.681z"/>
			<path class="land" fill="#FFFFFF" d="M219.008,115.96l-0.488,1.302c-0.139,0.371-0.494,0.617-0.891,0.617h-0.926
			c-0.525,0-0.952,0.426-0.952,0.952v1.585c0,0.525,0.427,0.952,0.952,0.952h0.424c0.327,0,0.633-0.169,0.806-0.447l1.109-1.774
			c0.126-0.203,0.326-0.351,0.556-0.414l2.231-0.608c0.499-0.136,0.798-0.646,0.672-1.148l-0.228-0.913
			c-0.105-0.423-0.486-0.72-0.923-0.72h-1.453C219.503,115.343,219.148,115.589,219.008,115.96z"/>
			<path class="land" fill="#FFFFFF" d="M333.561,140.924l-9.125,0.096c-0.262,0.002-0.514-0.103-0.695-0.293l-3.195-3.327
			c-0.205-0.214-0.498-0.319-0.793-0.286l-5.512,0.626c-0.541,0.062-0.92,0.564-0.83,1.101l0.191,1.146
			c0.121,0.732-0.605,1.316-1.295,1.039l-10.959-4.411c-0.293-0.117-0.508-0.372-0.574-0.679l-0.84-3.833
			c-0.096-0.437-0.482-0.748-0.93-0.748h-10.729c-0.252,0-0.494,0.1-0.674,0.278l-1.662,1.662
			c-0.178,0.178-0.42,0.278-0.672,0.278h-10.002c-0.148,0-0.293,0.035-0.426,0.101l-4.131,2.065
			c-0.268,0.133-0.457,0.386-0.51,0.68l-1.127,6.197c-0.035,0.201-0.137,0.385-0.287,0.524l-9.217,8.612
			c-0.145,0.136-0.242,0.314-0.283,0.509l-0.418,2.094c-0.09,0.45,0.154,0.899,0.58,1.07l1.652,0.661
			c0.447,0.179,0.689,0.664,0.566,1.128l-0.32,1.2c-0.062,0.233-0.211,0.434-0.416,0.561l-1.77,1.107
			c-0.279,0.174-0.449,0.479-0.449,0.807v8.466c0,0.231,0.088,0.456,0.24,0.63l3.406,3.852l5.334,5.489
			c0.037,0.04,0.072,0.082,0.104,0.127l2.035,2.986c0.184,0.27,0.492,0.426,0.82,0.415l3.699-0.128
			c0.24-0.008,0.467-0.107,0.639-0.278l1.535-1.535c0.168-0.168,0.393-0.267,0.629-0.277l6.26-0.285
			c0.225-0.01,0.438-0.1,0.602-0.253l1.691-1.569c0.176-0.163,0.406-0.254,0.648-0.254h2.561c0.252,0,0.494,0.1,0.672,0.279
			l1.98,1.979c0.178,0.178,0.42,0.279,0.672,0.279h5.717c0.49,0,0.9,0.372,0.945,0.86l1.008,10.51
			c0.014,0.133,0.055,0.262,0.121,0.379l6.268,11.044c0.178,0.312,0.164,0.698-0.037,0.998l-3.951,5.931
			c-0.105,0.156-0.162,0.34-0.162,0.526v3.706c0,0.283,0.127,0.55,0.344,0.729l3.119,2.602c0.217,0.18,0.342,0.448,0.342,0.73
			v8.718c0,0.225,0.08,0.442,0.227,0.613l3.83,4.542c0.145,0.171,0.225,0.39,0.225,0.612v6.594c0,0.54,0.445,0.971,0.982,0.951
			c0.447-0.016,1.018-0.04,1.656-0.067c15.561-18.956,24.9-43.211,24.9-69.648C337.771,160.663,336.301,150.525,333.561,140.924z
			"/>
			<path class="land" fill="#FFFFFF" d="M292.645,96.233l2.188,1.689c0.119,0.093,0.215,0.213,0.279,0.352l1.561,3.361
			c0.223,0.478,0.791,0.684,1.268,0.46l1.582-0.745c0.162-0.076,0.299-0.196,0.396-0.347l0.352-0.548
			c0.404-0.628,1.34-0.568,1.66,0.107l1.682,3.552c0.238,0.499,0,1.094-0.514,1.294l-1.754,0.682
			c-0.098,0.038-0.199,0.059-0.303,0.063c-1.045,0.044-7.02,0.283-7.453-0.006c-0.428-0.286-2.662,3.164-3.098,3.847
			c-0.049,0.078-0.107,0.147-0.178,0.207l-2.072,1.796c-0.131,0.114-0.291,0.189-0.463,0.219l-5.633,0.961
			c-0.367,0.063-0.666,0.336-0.76,0.698l-0.568,2.181c-0.127,0.488,0.148,0.991,0.629,1.146l2.504,0.805
			c0.562,0.181,0.826,0.826,0.551,1.349l-0.678,1.288c-0.219,0.415-0.707,0.609-1.15,0.457l-4.303-1.479l-3.238-1.281
			c-0.346-0.137-0.738-0.06-1.006,0.197l-1.984,1.898c-0.287,0.275-0.373,0.698-0.217,1.063l0.771,1.791
			c0.082,0.19,0.1,0.404,0.047,0.606l-0.615,2.467c-0.064,0.251-0.021,0.516,0.115,0.735l1.797,2.874
			c0.109,0.175,0.273,0.311,0.465,0.384l2.434,0.933c0.107,0.042,0.223,0.063,0.34,0.063h4.129c0.09,0,0.178-0.013,0.262-0.037
			l2.799-0.8c0.256-0.073,0.471-0.25,0.59-0.489l1.43-2.859c0.031-0.063,0.07-0.123,0.115-0.178l4.227-5.158
			c0.232-0.285,0.607-0.409,0.965-0.32l2.145,0.536c0.279,0.07,0.576,0.009,0.807-0.166l2.719-2.067
			c0.463-0.352,1.133-0.209,1.41,0.302l1.242,2.279c0.086,0.155,0.211,0.284,0.365,0.371l5.719,3.249
			c0.525,0.299,0.643,1.007,0.24,1.459l-1.756,1.975l-0.631,0.688c-0.494,0.54-0.219,1.413,0.494,1.571l2.359,0.524
			c0.205,0.045,0.416,0.022,0.605-0.065l1.217-0.562c0.338-0.155,0.553-0.492,0.553-0.863v-3.038
			c0-0.525,0.426-0.951,0.951-0.951l0,0c0.525,0,0.951-0.426,0.951-0.952v-0.671c0-0.365-0.209-0.697-0.537-0.856l-4.281-2.071
			c-0.062-0.031-0.123-0.069-0.18-0.114l-2.764-2.211c-0.207-0.165-0.334-0.407-0.354-0.67l-0.055-0.693
			c-0.041-0.527,0.355-0.985,0.883-1.022l3.268-0.225c0.24-0.017,0.479,0.058,0.664,0.211l4.52,3.671
			c0.17,0.138,0.287,0.331,0.332,0.545l0.838,4.053c0.029,0.14,0.09,0.271,0.176,0.384l2.748,3.595
			c0.492,0.642,1.51,0.418,1.686-0.371l0.76-3.428c0.043-0.186,0.139-0.355,0.277-0.486l1.264-1.19
			c0.539-0.505,1.422-0.234,1.582,0.487l0.848,3.816c0.037,0.169,0.119,0.325,0.24,0.45l2.928,3.068
			c0.143,0.148,0.326,0.247,0.529,0.281l4.453,0.758c-6.312-17.104-16.76-32.202-30.127-44.089l-0.508,1.015
			c-0.084,0.166-0.213,0.303-0.373,0.396l-7.252,4.22C292.166,94.998,292.111,95.82,292.645,96.233z"/>
			<path class="land" fill="#FFFFFF" d="M281.998,106.737l-1.314,0.725c-0.303,0.167-0.492,0.487-0.492,0.833v1.658
			c0,0.525,0.428,0.951,0.951,0.951h5.277c0.318,0,0.615-0.159,0.793-0.423l1.812-2.72c0.254-0.383,0.199-0.893-0.131-1.212
			l-3.658-3.528c-0.137-0.13-0.23-0.298-0.271-0.482l-1.121-5.152c-0.096-0.437-0.482-0.748-0.93-0.748h-2.529
			c-0.361,0-0.689,0.204-0.852,0.526l-1.262,2.521c-0.215,0.431-0.074,0.957,0.33,1.22l3.459,2.267
			c0.268,0.176,0.43,0.475,0.43,0.795v1.937C282.49,106.25,282.303,106.57,281.998,106.737z"/>
			<path class="land" fill="#FFFFFF" d="M279.092,104.898l-0.391-0.783c-0.111-0.221-0.305-0.391-0.537-0.472l-2.258-0.791
			c-0.338-0.119-0.711-0.038-0.971,0.208l-2.338,2.221c-0.252,0.241-0.354,0.602-0.262,0.939l0.574,2.103
			c0.168,0.615,0.879,0.894,1.42,0.557l4.414-2.75C279.16,105.871,279.312,105.337,279.092,104.898z"/>
		</g>
		<g class="container-etoiles">
			<g class="layer" data-depth="0.10">
				<path class="etoiles" data-hook="false" fill="transparent" stroke="#fff" stroke-miterlimit="10" d="M345.652,309.791l5.971,12.099
				c0.258,0.521,0.756,0.884,1.332,0.968l13.35,1.939c1.451,0.211,2.031,1.994,0.982,3.017l-9.662,9.417
				c-0.416,0.407-0.607,0.993-0.508,1.566l2.279,13.297c0.248,1.445-1.268,2.547-2.566,1.865l-11.941-6.278
				c-0.516-0.271-1.131-0.271-1.646,0l-11.941,6.278c-1.297,0.682-2.814-0.42-2.566-1.865l2.281-13.297
				c0.098-0.573-0.092-1.159-0.51-1.566l-9.66-9.417c-1.051-1.022-0.471-2.806,0.98-3.017l13.352-1.939
				c0.574-0.084,1.072-0.446,1.332-0.968l5.971-12.099C343.129,308.477,345.004,308.477,345.652,309.791z"/>
			</g>
			

			<g class="layer" data-depth="0.30">
				<path class="etoiles" data-hook="false" fill="transparent" stroke="#fff" stroke-miterlimit="10" d="M144.319,384.164l-8.92,6.277
				c-0.385,0.271-0.878,0.335-1.32,0.172l-10.228-3.79c-1.112-0.412-2.213,0.629-1.863,1.762l3.212,10.424
				c0.139,0.449,0.047,0.938-0.245,1.309l-6.765,8.556c-0.735,0.93-0.085,2.299,1.101,2.317l10.906,0.165
				c0.471,0.007,0.908,0.245,1.168,0.638l6.047,9.077c0.657,0.987,2.161,0.791,2.544-0.331l3.527-10.32
				c0.152-0.445,0.514-0.788,0.967-0.915l10.502-2.945c1.141-0.319,1.42-1.81,0.472-2.521l-8.726-6.544
				c-0.376-0.282-0.59-0.732-0.571-1.202l0.444-10.898C146.621,384.209,145.289,383.482,144.319,384.164z"/>
			</g>

			<g class="layer" data-depth="0.05">
				<path class="etoiles" data-hook="false" fill="transparent" stroke="#fff" stroke-miterlimit="10" d="M61.046,243.527l-8.92,6.277
				c-0.385,0.271-0.878,0.335-1.32,0.171l-10.228-3.789c-1.112-0.412-2.213,0.629-1.864,1.762l3.213,10.423
				c0.139,0.45,0.047,0.939-0.245,1.309l-6.765,8.556c-0.735,0.931-0.085,2.3,1.1,2.317l10.906,0.165
				c0.471,0.008,0.908,0.246,1.169,0.638l6.046,9.078c0.657,0.986,2.16,0.791,2.544-0.331l3.527-10.321
				c0.153-0.445,0.514-0.787,0.967-0.914l10.502-2.945c1.142-0.319,1.42-1.811,0.472-2.521l-8.726-6.544
				c-0.376-0.282-0.59-0.732-0.571-1.202l0.444-10.898C63.346,243.571,62.015,242.846,61.046,243.527z"/>
			</g>
			
			<g class="layer" data-depth="0.15">
				<path class="etoiles" data-hook="false" fill="transparent" stroke="#fff" stroke-miterlimit="10" d="M40.456,116.957l-12.87,4.76
				c-0.555,0.206-1.177,0.125-1.661-0.217l-11.218-7.903c-1.219-0.859-2.894,0.053-2.834,1.543l0.55,13.711
				c0.024,0.592-0.245,1.158-0.719,1.513l-10.983,8.226c-1.193,0.894-0.844,2.769,0.592,3.172l13.21,3.714
				c0.57,0.16,1.025,0.591,1.216,1.151l4.43,12.988c0.482,1.411,2.373,1.658,3.2,0.417l7.614-11.416
				c0.329-0.493,0.879-0.792,1.471-0.801l13.721-0.199c1.491-0.022,2.311-1.744,1.386-2.915l-8.504-10.77
			c-0.367-0.465-0.482-1.08-0.307-1.646l4.05-13.111C43.239,117.75,41.855,116.439,40.456,116.957z"/>
			</g>

			<g class="layer" data-depth="0.20">
				<path class="etoiles" data-hook="false" fill="transparent" stroke="#fff" stroke-miterlimit="10" d="M119.159,20.567l4.812,9.75
				c0.208,0.42,0.609,0.712,1.073,0.78l10.76,1.563c1.169,0.17,1.636,1.607,0.79,2.432l-7.786,7.589
				c-0.336,0.328-0.489,0.8-0.41,1.262l1.838,10.716c0.199,1.165-1.023,2.053-2.069,1.503l-9.624-5.06
				c-0.415-0.218-0.912-0.218-1.327,0l-9.624,5.06c-1.046,0.55-2.268-0.338-2.068-1.503l1.838-10.716
				c0.08-0.462-0.074-0.935-0.41-1.262l-7.785-7.589c-0.847-0.825-0.379-2.262,0.79-2.432l10.76-1.563
				c0.464-0.067,0.865-0.359,1.073-0.78l4.812-9.75C117.125,19.507,118.636,19.507,119.159,20.567z"/>
			</g>
			
			<g class="layer" data-depth="0.05">
				<path class="etoiles" data-hook="false" fill="transparent" stroke="#fff" stroke-miterlimit="10" d="M399.141,193.717l7.312,14.816
				c0.314,0.64,0.924,1.083,1.631,1.186l16.35,2.376c1.777,0.258,2.486,2.441,1.201,3.695l-11.832,11.532
				c-0.51,0.499-0.742,1.216-0.623,1.918l2.793,16.284c0.305,1.771-1.555,3.12-3.143,2.284l-14.625-7.688
				c-0.631-0.331-1.385-0.331-2.016,0l-14.625,7.688c-1.59,0.836-3.447-0.514-3.145-2.284l2.795-16.284
				c0.119-0.702-0.113-1.419-0.623-1.918L368.76,215.79c-1.285-1.254-0.576-3.438,1.201-3.695l16.35-2.376
				c0.705-0.103,1.316-0.546,1.631-1.186l7.312-14.816C396.049,192.107,398.346,192.107,399.141,193.717z"/>
			</g>
			
			<g class="layer" data-depth="0.50">
				<path class="etoiles" data-hook="false" fill="transparent" stroke="#fff" stroke-miterlimit="10" d="M420.955,130.715l6.574,13.317
				c0.283,0.575,0.83,0.974,1.465,1.065l14.697,2.136c1.598,0.231,2.234,2.194,1.078,3.321l-10.633,10.366
				c-0.459,0.448-0.67,1.092-0.561,1.725l2.51,14.636c0.273,1.591-1.396,2.804-2.824,2.053l-13.146-6.911
				c-0.566-0.298-1.246-0.298-1.812,0l-13.145,6.911c-1.43,0.751-3.1-0.462-2.826-2.053l2.51-14.636
				c0.109-0.632-0.1-1.277-0.559-1.725l-10.635-10.366c-1.156-1.127-0.518-3.09,1.08-3.321l14.695-2.136
				c0.635-0.092,1.184-0.49,1.467-1.065l6.572-13.317C418.178,129.268,420.242,129.268,420.955,130.715z"/>
			</g>
		</g>

	</svg>
