<?xml version="1.0" encoding="utf-8"?>
	<svg id="change-icon" width="40px" height="40px" viewBox="0 0 40 40" xml:space="preserve">
		<g>
			<path fill="#FFFFFF" d="M20,0C8.972,0,0,8.972,0,20c0,11.027,8.972,20,20,20c11.027,0,20-8.972,20-20S31.027,0,20,0z M20,38.711
				c-8.097,0-15.007-5.172-17.606-12.385l21.804,0.043l-3.908,3.908l0.982,0.981l5.58-5.581l-5.679-5.677l-0.981,0.981l3.998,3.999
				L1.956,24.938C1.525,23.364,1.29,21.71,1.29,20.001C1.29,9.685,9.683,1.292,20,1.292c8.097,0,15.008,5.171,17.606,12.384
				l-21.694-0.042l3.908-3.908l-0.982-0.982l-5.581,5.581l5.678,5.677l0.982-0.981l-3.999-3.999l22.124,0.044
				c0.432,1.574,0.666,3.229,0.666,4.938C38.71,30.316,30.316,38.711,20,38.711z"/>
		</g>
	</svg>
