<?xml version="1.0" encoding="utf-8"?>
	<svg id="eye" width="45px" height="32.91px" viewBox="0.19 54.167 63.81 46.667" xml:space="preserve">
		<g id="svg">
			<path fill="#FFFFFF" d="M58.652,74.121c0.375,0.402,0.371,1.057-0.009,1.455c0,0-13.299,13.925-26.549,13.925
				S4.301,75.365,4.301,75.365c-0.395-0.384-0.395-1.011,0-1.395c0,0,14.544-14.137,27.794-14.137S58.652,74.121,58.652,74.121z"/>
			<path fill="none" stroke="#000000" stroke-width="2" stroke-miterlimit="10" d="M58.652,74.121
				c0.375,0.402,0.371,1.057-0.009,1.455c0,0-13.299,13.925-26.549,13.925S4.301,75.365,4.301,75.365
				c-0.395-0.384-0.395-1.011,0-1.395c0,0,14.544-14.137,27.794-14.137S58.652,74.121,58.652,74.121z"/>
		</g>
		<circle id="svg_2" fill="#929AC4" stroke="#000000" stroke-width="2" stroke-miterlimit="10" cx="32.095" cy="74.668" r="10.292"/>
		<circle id="svg_3" cx="32.095" cy="74.667" r="5.512"/>
	</svg>