<?xml version="1.0" encoding="utf-8"?>
	<svg width="27px" height="27px" viewBox="583.006 583.402 29.381 28.984" xml:space="preserve">
		<g>
			<path id="games-icon" d="M611.698,601.103c-1.405-5.199-5.311-8.679-8.722-7.773c-1.298,0.345-3.388,1.217-4.861,1.315v-1.451h-0.004
				c0.001-0.084,0.004-0.159,0.004-0.246c0-1.488-1.196-2.691-2.672-2.691h-3.885c-0.939,0-1.7-0.768-1.7-1.714
				s0.761-1.713,1.7-1.713h5.585c0.536,0,0.972-0.439,0.972-0.979v-1.959c0-0.27-0.218-0.488-0.486-0.488
				c-0.268,0-0.485,0.219-0.485,0.488v0.98c0,0.97-0.04,0.979-0.972,0.979h-4.613c-1.476,0-2.672,1.204-2.672,2.693
				c0,1.486,1.196,2.692,2.672,2.692h3.885c0.938,0,1.7,0.767,1.7,1.713c0,0.087,0.003,0.161,0.004,0.245h-0.004v1.46
				c-1.454-0.104-3.516-0.977-4.795-1.323c-3.368-0.908-7.224,2.588-8.613,7.811c-1.388,5.222,0.217,10.194,3.585,11.104
				c2.513,0.678,5.294-1.101,7.123-4.215c1.01,0.215,2.075,0.338,3.186,0.338c1.124,0,2.203-0.196,3.226-0.409
				c1.853,3.1,4.668,4.87,7.213,4.194C611.479,611.247,613.104,606.299,611.698,601.103z M607.814,611.211
				c-2.277,0.604-4.851-1.249-6.457-4.355c-0.323,0.082-0.653,0.154-0.99,0.216l0,0c-0.872,0.159-1.787,0.317-2.736,0.317
				c-0.938,0-1.843-0.09-2.703-0.25c0-0.002,0-0.002,0-0.002c-0.333-0.061-0.659-0.133-0.978-0.216
				c-1.587,3.121-4.128,4.985-6.377,4.377c-2.85-0.771-4.147-5.205-2.897-9.905c1.112-4.188,3.871-7.165,6.475-7.223
				c1.236,0.124,4.058,1.47,6.48,1.47v-0.011c2.452,0,5.31-1.339,6.561-1.463c2.638,0.058,5.431,3.021,6.558,7.188
				C612.014,606.031,610.7,610.445,607.814,611.211z M602.486,602.493c-0.804,0-1.457,0.657-1.457,1.468
				c0,0.812,0.653,1.47,1.457,1.47c0.805,0,1.457-0.657,1.457-1.47C603.943,603.151,603.291,602.493,602.486,602.493z
				 M602.486,604.451c-0.268,0-0.485-0.219-0.485-0.49c0-0.27,0.217-0.488,0.485-0.488s0.486,0.219,0.486,0.488
				C602.973,604.232,602.755,604.451,602.486,604.451z M606.857,603.473c-0.805,0-1.456,0.657-1.456,1.468
				c0,0.812,0.651,1.468,1.456,1.468s1.457-0.657,1.457-1.468S607.662,603.473,606.857,603.473z M606.857,605.431
				c-0.268,0-0.485-0.219-0.485-0.49c0-0.27,0.217-0.489,0.485-0.489s0.486,0.22,0.486,0.489
				C607.343,605.212,607.125,605.431,606.857,605.431z M592.773,601.024h-1.942v-1.957c0-0.271-0.218-0.491-0.486-0.491
				s-0.485,0.221-0.485,0.491v1.957h-1.943c-0.268,0-0.485,0.219-0.485,0.489s0.218,0.489,0.485,0.489h1.943v1.958
				c0,0.271,0.217,0.49,0.485,0.49s0.486-0.219,0.486-0.49v-1.958h1.942c0.268,0,0.485-0.219,0.485-0.489
				S593.041,601.024,592.773,601.024z M606.857,599.067c-0.805,0-1.456,0.657-1.456,1.468s0.651,1.469,1.456,1.469
				s1.457-0.658,1.457-1.469S607.662,599.067,606.857,599.067z M606.857,601.024c-0.268,0-0.485-0.22-0.485-0.489
				s0.217-0.489,0.485-0.489s0.486,0.22,0.486,0.489C607.343,600.805,607.125,601.024,606.857,601.024z M602.486,598.087
				c-0.804,0-1.457,0.658-1.457,1.469c0,0.812,0.653,1.469,1.457,1.469c0.805,0,1.457-0.657,1.457-1.469
				C603.943,598.745,603.291,598.087,602.486,598.087z M602.486,600.046c-0.268,0-0.485-0.219-0.485-0.49
				c0-0.27,0.217-0.488,0.485-0.488s0.486,0.219,0.486,0.488C602.973,599.827,602.755,600.046,602.486,600.046z"/>
		</g>
	</svg>
