<?xml version="1.0" encoding="utf-8"?>
	<svg class="rocket rocket-hover" width="44.732px" height="58.865px" viewBox="747.263 733.13 44.732 58.865" xml:space="preserve">
		<defs>
			<linearGradient id="grad_fire" x1="0%" y1="0%" x2="100%" y2="100%">
			  <stop offset="0%" style="stop-color:#EBD302;stop-opacity:1" />
			  <stop offset="100%" style="stop-color:#CC0000;stop-opacity:1" />
			</linearGradient>
		</defs>
		<g>
			<path fill="#FFFFFF" d="M769.725,753.098c-3.633,0-6.588,2.955-6.588,6.588c0,3.632,2.955,6.587,6.588,6.587
				c3.632,0,6.587-2.955,6.587-6.587C776.312,756.053,773.357,753.098,769.725,753.098z M769.725,764.983
				c-2.922,0-5.299-2.376-5.299-5.297c0-2.922,2.377-5.299,5.299-5.299c2.921,0,5.297,2.377,5.297,5.299
				C775.022,762.607,772.646,764.983,769.725,764.983z"/>
			<path fill="#FFFFFF" d="M791.158,767.138c-0.018-0.195-0.123-0.372-0.287-0.48l-7.553-4.981c0-3.724-0.004-7.519-0.013-10.633
				c-0.03-9.863-7.254-17.727-13.448-17.91c-0.086-0.002-0.173-0.003-0.258-0.003c-7.174,0-13.467,8.513-13.467,18.219v10.202
				l-7.741,5.106c-0.163,0.108-0.269,0.285-0.287,0.48l-0.838,9.218c-0.021,0.231,0.085,0.457,0.276,0.589s0.44,0.15,0.649,0.048
				l7.939-3.892v4.128c0,0.355,0.29,0.645,0.646,0.645h25.883c0.355,0,0.645-0.289,0.645-0.644c0,0,0.003-1.579,0.006-4.049
				l7.756,3.811c0.209,0.104,0.458,0.086,0.65-0.047c0.191-0.132,0.298-0.357,0.277-0.589L791.158,767.138z M782.952,771.568
				c-0.199-0.098-0.437-0.087-0.625,0.031c-0.188,0.117-0.304,0.324-0.304,0.547c-0.002,2.031-0.005,3.609-0.006,4.438h-24.596
				v-4.516c0-0.223-0.114-0.43-0.303-0.547c-0.189-0.118-0.426-0.131-0.625-0.032l-7.839,3.841l0.706-7.766l7.771-5.128
				c0.181-0.119,0.289-0.321,0.289-0.538v-10.549c0-9.977,6.418-16.93,12.178-16.93c0.073,0,0.146,0.001,0.22,0.003
				c6.729,0.199,12.175,9.259,12.197,16.625c0.009,3.21,0.013,7.144,0.013,10.976c0,0.217,0.109,0.419,0.289,0.538l7.584,5.003
				l0.703,7.765L782.952,771.568z"/>
			<path class="fire" fill="#FFFFFF" d="M776.473,779.659h-13.497c-0.171,0-0.335,0.069-0.457,0.19c-0.997,1.001-2.322,2.562-2.322,4.554
				c0,1.92,0.79,2.583,1.988,3.587c0.275,0.23,0.588,0.492,0.937,0.808c0.117,0.103,0.27,0.159,0.425,0.159
				c0.481,0,0.481,0,1.458-2.356c0.16-0.386,0.36-0.869,0.535-1.28c0.432,0.732,1.002,1.884,1.426,2.736
				c1.584,3.193,2.027,3.939,2.76,3.939h0.018c0.713,0,1.157-0.748,2.744-3.945c0.423-0.853,0.993-2.001,1.421-2.731
				c0.175,0.409,0.375,0.893,0.534,1.277c0.979,2.36,0.979,2.36,1.458,2.36h0.001c0.159,0,0.315-0.061,0.435-0.168
				c0.339-0.307,0.651-0.568,0.927-0.799c1.198-1.004,1.988-1.667,1.988-3.588c0-1.994-1.324-3.554-2.321-4.554
				C776.809,779.728,776.644,779.659,776.473,779.659z M776.434,787.001c-0.101,0.084-0.205,0.172-0.314,0.265
				c-0.152-0.358-0.334-0.796-0.486-1.163c-1.098-2.648-1.098-2.648-1.594-2.648c-0.125,0-0.25,0.036-0.355,0.105
				c-0.547,0.357-1.137,1.468-2.353,3.917c-0.492,0.992-1.191,2.4-1.607,3.019c-0.415-0.618-1.112-2.022-1.604-3.013
				c-1.218-2.453-1.808-3.565-2.363-3.929c-0.104-0.064-0.226-0.101-0.348-0.101c-0.497,0-0.497,0-1.597,2.653
				c-0.151,0.366-0.332,0.801-0.484,1.159c-0.11-0.093-0.215-0.181-0.315-0.266c-1.143-0.957-1.527-1.28-1.527-2.599
				c0-1.113,0.545-2.187,1.762-3.453h12.955c1.215,1.266,1.759,2.338,1.759,3.453C777.961,785.721,777.577,786.043,776.434,787.001z"
				/>
			<path fill="#FFFFFF" d="M765.923,738.823c0.281-0.219,0.332-0.624,0.114-0.904c-0.219-0.282-0.623-0.333-0.904-0.115
				c-0.207,0.16-5.084,3.994-5.574,9.744c-0.468,5.503-0.356,12.126-0.355,12.192c0.007,0.353,0.294,0.634,0.645,0.634
				c0.005,0,0.008,0,0.013,0c0.355-0.007,0.639-0.301,0.633-0.657c-0.002-0.064-0.112-6.624,0.352-12.06
				C761.286,742.48,765.877,738.859,765.923,738.823z"/>
			<path fill="#FFFFFF" d="M751.065,767.444c-0.356-0.017-0.664,0.243-0.689,0.598l-0.353,4.945
				c-0.025,0.355,0.241,0.663,0.597,0.689c0.016,0.001,0.031,0.001,0.047,0.001c0.336,0,0.618-0.26,0.643-0.599l0.354-4.944
				C751.688,767.779,751.42,767.469,751.065,767.444z"/>
			<path fill="#FFFFFF" d="M768.748,756.508c0.294-0.201,0.368-0.602,0.167-0.896s-0.602-0.369-0.896-0.168
				c-0.09,0.062-2.206,1.534-2.315,3.781c-0.069,1.408,0.653,2.757,2.146,4.009c0.121,0.101,0.268,0.15,0.414,0.15
				c0.184,0,0.367-0.078,0.494-0.231c0.229-0.272,0.192-0.68-0.08-0.908c-1.165-0.976-1.732-1.969-1.688-2.95
				C767.064,757.698,768.718,756.529,768.748,756.508z"/>
		</g>
	</svg>
