<?xml version="1.0" encoding="utf-8"?>
<svg width="500px" height="500px" viewBox="0 0 500 500" xml:space="preserve">
	<g class="layer" data-depth='0.05'>
		<path class="etoiles" data-hook="false" fill="#26368A" stroke="#FFFFFF" stroke-miterlimit="10" d="M195.652,144.284l5.971,12.1c0.258,0.521,0.756,0.883,1.332,0.967
			l13.35,1.939c1.451,0.211,2.031,1.994,0.982,3.018l-9.662,9.416c-0.416,0.408-0.607,0.994-0.508,1.566l2.279,13.297
			c0.247,1.445-1.269,2.547-2.566,1.865l-11.941-6.277c-0.516-0.271-1.131-0.271-1.646,0l-11.941,6.277
			c-1.297,0.682-2.813-0.42-2.565-1.865l2.28-13.297c0.099-0.572-0.092-1.158-0.51-1.566l-9.66-9.416
			c-1.051-1.022-0.471-2.807,0.98-3.018l13.352-1.939c0.574-0.084,1.072-0.445,1.332-0.967l5.972-12.1
			C193.129,142.969,195.004,142.969,195.652,144.284z"/>
	</g>
	<g class="layer" data-depth='0.15'>
		<path class="etoiles" data-hook="false" fill="#26368A" stroke="#FFFFFF" stroke-miterlimit="10" d="M355.876,148.151l-10.832-1.28
			c-0.467-0.055-0.876-0.336-1.097-0.752l-5.086-9.649c-0.554-1.05-2.067-1.009-2.563,0.068l-4.566,9.906
			c-0.196,0.427-0.591,0.73-1.057,0.812l-10.748,1.854c-1.168,0.202-1.598,1.655-0.727,2.46l8.011,7.403
			c0.346,0.319,0.513,0.788,0.443,1.255l-1.557,10.795c-0.169,1.172,1.081,2.031,2.115,1.452l9.515-5.331
			c0.411-0.23,0.909-0.244,1.332-0.036l9.785,4.817c1.062,0.524,2.266-0.399,2.034-1.562l-2.13-10.698
			c-0.091-0.46,0.05-0.939,0.378-1.276l7.604-7.819C357.561,149.722,357.054,148.292,355.876,148.151z"/>
	</g>
	<g class="layer" data-depth='0.10'>
		<path class="etoiles" data-hook="false" fill="#26368A" stroke="#FFFFFF" stroke-miterlimit="10" d="M131.696,135.485l-7.204,8.19c-0.311,0.353-0.775,0.53-1.242,0.474
			l-10.831-1.291c-1.179-0.141-2.005,1.129-1.4,2.149l5.562,9.383c0.241,0.404,0.267,0.902,0.068,1.33l-4.575,9.902
			c-0.497,1.077,0.456,2.256,1.612,1.995l10.641-2.391c0.461-0.102,0.94,0.026,1.286,0.346l8.003,7.411
			c0.869,0.806,2.284,0.264,2.396-0.916l1.014-10.861c0.044-0.468,0.315-0.885,0.727-1.114l9.521-5.321
			c1.036-0.578,0.956-2.093-0.131-2.561l-10.016-4.321c-0.432-0.186-0.744-0.573-0.835-1.034l-2.119-10.7
			C133.942,134.989,132.479,134.596,131.696,135.485z"/>
	</g>
	<g class="layer" data-depth='0.20'>
		<path class="etoiles" data-hook="false" fill="#26368A" stroke="#FFFFFF" stroke-miterlimit="10" d="M385.061,137.943l5.748,11.648c0.25,0.501,0.729,0.851,1.282,0.932
			l12.855,1.867c1.396,0.204,1.952,1.92,0.942,2.905l-9.3,9.066c-0.401,0.392-0.586,0.956-0.489,1.507l2.194,12.802
			c0.238,1.392-1.223,2.452-2.473,1.795l-11.496-6.044c-0.496-0.261-1.089-0.261-1.586,0l-11.497,6.044
			c-1.25,0.657-2.709-0.403-2.471-1.795l2.194-12.802c0.097-0.552-0.087-1.117-0.488-1.507l-9.3-9.066
			c-1.011-0.985-0.452-2.702,0.943-2.905l12.854-1.867c0.556-0.081,1.033-0.43,1.282-0.932l5.748-11.648
			C382.631,136.677,384.437,136.677,385.061,137.943z"/>
	</g>
	<g class="layer" data-depth='0.05'>
		<path class="etoiles" data-hook="false" fill="#26368A" stroke="#FFFFFF" stroke-miterlimit="10" d="M465.321,127.613l7.312,14.816c0.313,0.64,0.924,1.083,1.631,1.186
			l16.35,2.376c1.777,0.258,2.486,2.441,1.201,3.695l-11.832,11.532c-0.51,0.498-0.742,1.216-0.623,1.918l2.793,16.283
			c0.306,1.771-1.555,3.121-3.143,2.285l-14.625-7.688c-0.631-0.331-1.385-0.331-2.016,0l-14.625,7.688
			c-1.591,0.836-3.447-0.515-3.146-2.285l2.795-16.283c0.119-0.702-0.113-1.42-0.623-1.918l-11.831-11.532
			c-1.285-1.254-0.576-3.438,1.201-3.695l16.35-2.376c0.705-0.103,1.316-0.546,1.632-1.186l7.312-14.816
			C462.229,126.003,464.526,126.003,465.321,127.613z"/>
	</g>
	<g class="layer" data-depth='0.10'>
		<path class="etoiles" data-hook="false" fill="#26368A" stroke="#FFFFFF" stroke-miterlimit="10" d="M40.451,139.287l6.574,13.317c0.282,0.575,0.83,0.974,1.465,1.065
			l14.697,2.136c1.598,0.231,2.233,2.194,1.077,3.321l-10.633,10.366c-0.459,0.448-0.67,1.092-0.561,1.725l2.51,14.636
			c0.273,1.591-1.396,2.804-2.824,2.053l-13.146-6.911c-0.566-0.298-1.246-0.298-1.812,0l-13.145,6.911
			c-1.431,0.751-3.101-0.462-2.826-2.053l2.51-14.636c0.109-0.632-0.1-1.277-0.559-1.725l-10.635-10.366
			c-1.156-1.127-0.519-3.09,1.079-3.321l14.695-2.136c0.635-0.092,1.185-0.49,1.467-1.065l6.572-13.317
			C37.673,137.84,39.738,137.84,40.451,139.287z"/>
	</g>
</svg>
