<?xml version="1.0" encoding="UTF-8"?>
<svg width="40px" height="50px" viewBox="300 215 40 50" xml:space="preserve">
	<path d="M316.544,255.945h-10.573v-33.584h10.573c0.349,0,0.622-0.273,0.622-0.622c0-0.349-0.273-0.622-0.622-0.622H305.35
		c-0.349,0-0.622,0.273-0.622,0.622v34.828c0,0.349,0.273,0.622,0.622,0.622h11.194c0.349,0,0.622-0.273,0.622-0.622
		S316.88,255.945,316.544,255.945z"/>
	<path d="M335.774,239.39c0.013-0.025,0.013-0.037,0.024-0.062c0-0.013,0.013-0.038,0.013-0.05
		c0.013-0.037,0.013-0.075,0.013-0.125l0,0l0,0c0-0.037,0-0.087-0.013-0.124c0-0.013-0.013-0.038-0.013-0.05
		c0-0.025-0.012-0.038-0.024-0.062s-0.024-0.037-0.037-0.062c-0.013-0.013-0.013-0.038-0.025-0.05
		c-0.024-0.037-0.05-0.062-0.074-0.1l-6.22-6.219c-0.248-0.249-0.634-0.249-0.883,0c-0.249,0.249-0.249,0.635,0,0.883l5.162,5.162
		h-22.128c-0.349,0-0.622,0.273-0.622,0.622c0,0.349,0.273,0.622,0.622,0.622h22.128l-5.162,5.162
		c-0.249,0.248-0.249,0.634,0,0.883c0.125,0.125,0.286,0.187,0.436,0.187s0.323-0.062,0.436-0.187l6.219-6.219
		c0.025-0.025,0.05-0.062,0.075-0.099c0.012-0.013,0.012-0.025,0.024-0.05C335.75,239.427,335.762,239.415,335.774,239.39z"/>
</svg>