<?xml version="1.0" encoding="utf-8"?>
<svg width="40px" height="50px" viewBox="300 215 40 50" xml:space="preserve">
<path d="M339.261,238.619c0.005-0.022,0.01-0.045,0.015-0.069c0-0.002,0-0.004,0-0.007c0.002-0.024,0.005-0.047,0.005-0.07
	c0-0.002,0-0.005,0-0.006c0-0.004,0.002-0.009,0.002-0.013c0-0.101-0.021-0.197-0.062-0.284c-0.003-0.003-0.005-0.007-0.005-0.011
	c-0.01-0.019-0.02-0.037-0.029-0.055c-0.002-0.002-0.004-0.005-0.004-0.009l-10.285-16.953c-0.003-0.003-0.005-0.005-0.008-0.008
	c-0.007-0.013-0.017-0.025-0.023-0.037c-0.005-0.006-0.01-0.012-0.012-0.017c-0.012-0.015-0.024-0.029-0.036-0.042
	c-0.005-0.005-0.01-0.01-0.015-0.015c-0.012-0.012-0.023-0.023-0.035-0.035c-0.008-0.005-0.015-0.011-0.021-0.017
	c-0.008-0.008-0.017-0.016-0.026-0.022c-0.01-0.005-0.017-0.011-0.024-0.016c-0.009-0.007-0.019-0.013-0.028-0.02
	c-0.01-0.005-0.017-0.009-0.023-0.014c-0.012-0.006-0.021-0.011-0.033-0.016c-0.008-0.004-0.015-0.008-0.024-0.012
	c-0.012-0.005-0.021-0.01-0.033-0.014c-0.01-0.003-0.017-0.007-0.024-0.009c-0.002-0.001-0.004-0.002-0.007-0.002
	c-0.091-0.03-2.098-0.679-5.141-1.006c-0.036-0.952-0.441-1.597-1.21-1.917c-0.614-0.256-1.371-0.256-2.171-0.256
	s-1.557,0-2.173,0.256c-0.767,0.32-1.173,0.965-1.209,1.917c-3.042,0.327-5.048,0.976-5.14,1.005
	c-0.001,0.001-0.004,0.002-0.006,0.002c-0.009,0.003-0.017,0.007-0.025,0.01c-0.012,0.004-0.022,0.008-0.033,0.013
	c-0.008,0.004-0.017,0.008-0.025,0.012c-0.011,0.005-0.021,0.01-0.031,0.016c-0.008,0.005-0.017,0.01-0.025,0.015
	c-0.01,0.006-0.019,0.012-0.028,0.019c-0.008,0.005-0.017,0.011-0.025,0.017s-0.018,0.014-0.026,0.021
	c-0.007,0.006-0.014,0.012-0.021,0.019c-0.012,0.01-0.022,0.021-0.033,0.031c-0.006,0.007-0.012,0.013-0.018,0.019
	c-0.012,0.013-0.022,0.026-0.033,0.04c-0.005,0.006-0.008,0.012-0.012,0.018c-0.01,0.012-0.018,0.024-0.026,0.037
	c-0.001,0.003-0.004,0.005-0.005,0.008l-10.286,16.953c-0.001,0.004-0.003,0.006-0.004,0.009c-0.01,0.018-0.02,0.036-0.029,0.055
	c-0.002,0.003-0.004,0.007-0.006,0.011c-0.04,0.087-0.062,0.183-0.062,0.284c0,0.005,0,0.009,0,0.013c0,0.002,0,0.004,0,0.006
	c0,0.023,0.002,0.047,0.005,0.07c0,0.002,0.001,0.004,0.001,0.007c0.003,0.024,0.007,0.047,0.013,0.069c0,0.002,0,0.003,0.001,0.005
	c0.007,0.025,0.015,0.05,0.023,0.073l0,0l0,0c0.038,0.099,0.097,0.186,0.172,0.258c0,0,0.001,0.001,0.001,0.001
	c0.018,0.017,0.037,0.032,0.056,0.048c0.002,0,0.002,0.001,0.004,0.002c0.064,0.048,0.137,0.084,0.215,0.107
	c3.608,1.117,6.128,4.543,6.128,8.338v5.223c0,1.05,0.212,2.051,0.597,2.963c0.012,0.035,0.027,0.069,0.045,0.103
	c1.184,2.701,3.883,4.594,7.017,4.594c0.381,0,0.688-0.309,0.688-0.688v-4.234c0-0.002,0-0.003,0-0.004s0-0.002,0-0.004v-4.231
	c0-0.002,0-0.003,0-0.004s0-0.002,0-0.004v-4.23c0-0.001,0-0.003,0-0.004s0-0.002,0-0.003v-4.231c0-0.001,0-0.002,0-0.004
	c0-0.001,0-0.002,0-0.003v-2.593c0.518,0.38,1.086,0.69,1.692,0.923l0.156,10.925c0.003,0.235,0.125,0.452,0.325,0.576
	c0.094,0.058,0.955,0.57,2.138,0.57c1.185,0,2.044-0.513,2.139-0.57c0.199-0.124,0.321-0.341,0.324-0.576l0.156-10.925
	c0.606-0.232,1.175-0.543,1.693-0.923v2.593c0,0.001-0.001,0.002-0.001,0.003c0,0.002,0.001,0.003,0.001,0.004v4.231
	c0,0.001-0.001,0.002-0.001,0.003s0.001,0.003,0.001,0.004v4.23c0,0.002-0.001,0.003-0.001,0.004s0.001,0.002,0.001,0.004v4.231
	c0,0.002-0.001,0.003-0.001,0.004s0.001,0.002,0.001,0.004v4.234c0,0.38,0.309,0.688,0.688,0.688c3.134,0,5.832-1.893,7.016-4.594
	c0.02-0.033,0.034-0.068,0.048-0.105c0.382-0.91,0.595-1.911,0.595-2.96v-5.223c0-3.795,2.52-7.222,6.128-8.338
	c0.078-0.023,0.152-0.06,0.217-0.107c0-0.001,0.003-0.001,0.003-0.002c0.019-0.016,0.038-0.031,0.057-0.048c0,0,0-0.001,0.003-0.001
	c0.074-0.07,0.134-0.158,0.169-0.257c0,0,0,0,0.003,0c0-0.001,0-0.001,0-0.001c0.007-0.022,0.017-0.048,0.021-0.072
	C339.261,238.622,339.261,238.621,339.261,238.619z M332.229,229.287h-4.038c0.249-2.084,0.463-4.172,0.609-5.653L332.229,229.287z
	 M328.02,230.664h5.044l1.735,2.861h-7.183C327.754,232.653,327.891,231.675,328.02,230.664z M327.22,235.648
	c0.053-0.226,0.103-0.476,0.155-0.746h8.259l1.737,2.863H326.39C326.762,237.115,327.046,236.403,327.22,235.648z M317.109,221.171
	l0.513,1.073l0.341,2.225c0.051,0.34,0.345,0.584,0.679,0.584c0.035,0,0.069-0.002,0.105-0.008c0.376-0.057,0.634-0.409,0.577-0.785
	l-0.357-2.325c-0.01-0.067-0.03-0.132-0.059-0.193l-0.915-1.911c0.035-0.688,0.354-0.788,2.007-0.788c1.653,0,1.971,0.1,2.005,0.788
	l-0.913,1.911c-0.03,0.061-0.05,0.126-0.061,0.193l-0.355,2.325c-0.059,0.376,0.199,0.728,0.575,0.785
	c0.376,0.058,0.728-0.201,0.785-0.576l0.34-2.225l0.514-1.073c2.184,0.211,3.873,0.611,4.68,0.83
	c-0.076,0.834-0.236,2.506-0.443,4.429h-14.253c-0.208-1.923-0.368-3.595-0.444-4.429
	C313.238,221.783,314.925,221.382,317.109,221.171z M306.938,230.664h5.043c0.13,1.011,0.266,1.989,0.405,2.861h-7.185
	L306.938,230.664z M311.202,223.634c0.145,1.481,0.358,3.569,0.609,5.653h-4.039L311.202,223.634z M304.362,239.141h5.056
	c0.38,0,0.688-0.309,0.688-0.688c0-0.38-0.309-0.688-0.688-0.688h-6.789l1.737-2.863h8.26c0.051,0.27,0.104,0.521,0.156,0.746
	c0.174,0.755,0.457,1.467,0.829,2.117h-1.44c-0.38,0-0.688,0.308-0.688,0.688c0,0.379,0.308,0.688,0.688,0.688h2.141v2.862h-7.188
	c-0.131-0.204-0.269-0.406-0.416-0.602C306.053,240.523,305.255,239.761,304.362,239.141z M308.718,247.617h5.594v2.861h-5.594
	V247.617z M308.646,246.24c-0.118-0.992-0.382-1.953-0.783-2.861h6.449v2.861H308.646z M308.718,252.674v-0.818h5.594v2.862h-5.251
	C308.838,254.077,308.718,253.39,308.718,252.674z M309.735,256.095h4.577v2.824C312.396,258.709,310.738,257.634,309.735,256.095z
	 M322.593,239.533c-0.098-0.256-0.342-0.439-0.633-0.444c-0.004,0-0.008,0-0.011,0c-0.375,0-0.683,0.302-0.688,0.678l-0.011,0.749
	v0.002l-0.157,10.981c-0.255,0.1-0.643,0.213-1.093,0.213c-0.449,0-0.837-0.113-1.094-0.215l-0.156-10.976c0-0.004,0-0.007,0-0.01
	l-0.011-0.744c-0.006-0.377-0.312-0.679-0.688-0.679c-0.003,0-0.006,0-0.009,0c-0.291,0.005-0.537,0.188-0.634,0.444
	c-0.705-0.337-1.328-0.807-1.844-1.383c-0.023-0.032-0.049-0.063-0.077-0.092c-0.029-0.04-0.061-0.077-0.097-0.11
	c-0.6-0.732-1.038-1.619-1.267-2.609c-0.237-1.029-0.482-2.611-0.71-4.344l3.442,0.589l-0.345,0.531
	c-0.207,0.319-0.116,0.746,0.203,0.952c0.116,0.075,0.246,0.111,0.375,0.111c0.225,0,0.445-0.109,0.578-0.313l0.914-1.407
	c0.125-0.194,0.146-0.439,0.052-0.651c-0.092-0.212-0.285-0.363-0.514-0.402l-4.886-0.836c-0.072-0.588-0.141-1.18-0.207-1.762
	h13.951c-0.067,0.583-0.137,1.174-0.208,1.762l-4.887,0.836c-0.228,0.04-0.421,0.19-0.514,0.402
	c-0.094,0.212-0.073,0.457,0.052,0.651l0.916,1.408c0.131,0.203,0.352,0.312,0.577,0.312c0.129,0,0.259-0.036,0.375-0.111
	c0.318-0.207,0.409-0.632,0.201-0.952l-0.345-0.531l3.442-0.589c-0.229,1.733-0.472,3.315-0.708,4.344
	c-0.229,0.991-0.669,1.879-1.272,2.613c-0.033,0.032-0.064,0.067-0.091,0.104c-0.028,0.028-0.055,0.061-0.078,0.094
	C323.921,238.726,323.297,239.196,322.593,239.533z M325.688,251.855h2.064c0.382,0,0.689-0.308,0.689-0.688
	c0-0.38-0.308-0.688-0.689-0.688h-2.064v-2.861h5.596v2.861h-0.777c-0.38,0-0.688,0.309-0.688,0.688
	c0,0.381,0.308,0.688,0.688,0.688h0.777v0.818c0,0.716-0.121,1.403-0.344,2.044h-5.252V251.855z M331.355,246.24h-5.668v-2.861h6.45
	C331.737,244.287,331.472,245.248,331.355,246.24z M325.688,258.919v-2.824h4.579C329.263,257.634,327.604,258.709,325.688,258.919z
	 M333.293,241.401c-0.146,0.195-0.284,0.397-0.415,0.602h-7.19v-2.862h9.951C334.746,239.761,333.946,240.523,333.293,241.401z"/>
</svg>
