<?xml version="1.0" encoding="utf-8"?>
<svg width="50px" height="40px" viewBox="295 220 50 40" xml:space="preserve">
<path d="M303.818,229.608
	c-3.125,0.249-5.691,2.986-5.399,6.201c0.252,2.761,2.692,5.025,5.547,4.722c2.395-0.253,4.359-2.397,4.042-4.896
	c-0.258-2.028-2.111-3.696-4.251-3.355c-1.662,0.265-3.036,1.835-2.656,3.622c0.137,0.647,0.508,1.208,1.038,1.59
	c0.528,0.38,1.267,0.567,1.986,0.339c0.471-0.151,0.847-0.45,1.101-0.884c0.254-0.432,0.337-1.106-0.003-1.641
	c-0.274-0.432-0.527-0.518-0.923-0.584c-0.197-0.033-0.475-0.045-0.768,0.146c-0.294,0.191-0.45,0.587-0.45,0.867
	c-0.002,0.214,0.08,0.419,0.23,0.571c-0.079-0.022-0.156-0.054-0.239-0.114c-0.193-0.139-0.359-0.391-0.408-0.624
	c-0.17-0.798,0.516-1.578,1.342-1.71c1.175-0.187,2.262,0.792,2.413,1.977c0.196,1.546-1.079,2.939-2.623,3.103
	c-1.916,0.203-3.611-1.371-3.785-3.277c-0.208-2.281,1.666-4.281,3.932-4.46c0.021-0.002,0.041-0.003,0.062-0.004h31.99
	c0.019,0.001,0.041,0.002,0.06,0.004c2.267,0.18,4.141,2.18,3.934,4.461c-0.173,1.905-1.87,3.479-3.786,3.276
	c-1.544-0.164-2.819-1.555-2.622-3.102c0.15-1.185,1.238-2.164,2.413-1.977c0.827,0.131,1.512,0.912,1.344,1.71
	c-0.051,0.233-0.216,0.485-0.409,0.624c-0.082,0.06-0.161,0.091-0.238,0.114c0.149-0.152,0.232-0.357,0.229-0.571
	c0-0.28-0.155-0.676-0.45-0.868c-0.294-0.191-0.571-0.179-0.769-0.146c-0.396,0.066-0.647,0.152-0.922,0.583
	c-0.341,0.536-0.259,1.209-0.005,1.641c0.256,0.434,0.632,0.734,1.103,0.884c0.72,0.228,1.456,0.042,1.986-0.339
	c0.529-0.382,0.899-0.943,1.038-1.59c0.38-1.786-0.994-3.357-2.656-3.622c-2.14-0.341-3.992,1.327-4.25,3.354
	c-0.318,2.498,1.646,4.642,4.04,4.896c2.855,0.303,5.295-1.961,5.546-4.722c0.293-3.215-2.272-5.953-5.397-6.201
	c-0.064-0.01-0.125-0.006-0.188-0.006h-31.99C303.943,229.597,303.878,229.604,303.818,229.608L303.818,229.608z M300.806,221.606
	c-0.442,0-0.799,0.357-0.799,0.801v1.599c0,0.212,0.083,0.415,0.234,0.565l3.199,3.199c0.15,0.15,0.353,0.234,0.565,0.234h31.991
	c0.212,0,0.415-0.084,0.564-0.234l3.199-3.199c0.15-0.15,0.234-0.354,0.234-0.565v-1.599c0-0.443-0.358-0.801-0.801-0.801H300.806z
	 M301.606,223.206h36.788v0.468l-2.731,2.73h-31.327l-2.73-2.73V223.206z M310.403,234.402c-0.442,0-0.799,0.358-0.799,0.8v22.394
	c0,0.441,0.358,0.799,0.799,0.799c0.158,0,0.313-0.047,0.444-0.135l4.549-3.031c0.219-0.146,0.353-0.391,0.356-0.652l0.25-14.563
	c0-0.005,0-0.009,0-0.015c0-0.523,1.608-0.537,1.599-0.014c0,0.006,0,0.01,0,0.014v12.798c0,0.439,0.358,0.801,0.8,0.801
	c0.157,0,0.312-0.047,0.443-0.135l4.799-3.199c0.222-0.148,0.355-0.398,0.356-0.666v-9.599c0-0.533,1.599-0.533,1.599,0V248
	c0,0.439,0.358,0.797,0.801,0.797c0.123,0,0.247-0.029,0.356-0.084l3.199-1.598c0.271-0.137,0.441-0.414,0.443-0.717v-11.197
	c0-0.441-0.359-0.8-0.8-0.8H310.403L310.403,234.402L310.403,234.402z M311.204,236.002h17.595v9.904l-1.601,0.799v-6.707
	c0-2.663-4.798-2.663-4.798,0v9.171l-3.2,2.131v-11.302v0.018c0.048-2.677-4.799-2.691-4.799-0.018v-0.011l-0.241,14.143
	l-2.958,1.971V236.002L311.204,236.002z"/>
</svg>
