<?xml version="1.0" encoding="UTF-8"?>
<svg width="40px" viewBox="485 487.25 30 25.5" xml:space="preserve">
	<path d="M511.353,495.9c1.604-1.604,1.416-4.401-0.418-6.235c-1.818-1.818-4.564-2.041-6.18-0.522c-0.03,0.019-0.059,0.04-0.084,0.066l-15.51,15.527c-0.02,0.02-0.036,0.042-0.052,0.064c-0.005,0.007-0.01,0.016-0.014,0.024c-0.009,0.015-0.018,0.03-0.025,0.046c-0.004,0.011-0.008,0.02-0.012,0.03c-0.005,0.016-0.01,0.032-0.014,0.048c-0.003,0.011-0.005,0.02-0.007,0.03c-0.001,0.005-0.002,0.01-0.002,0.016l-0.916,6.916c-0.018,0.139,0.029,0.277,0.127,0.376c0.084,0.085,0.2,0.132,0.318,0.132c0.019,0,0.038-0.001,0.056-0.003l6.962-0.865c0.005-0.001,0.011-0.001,0.016-0.002c0.011-0.002,0.022-0.005,0.033-0.008c0.016-0.003,0.031-0.008,0.046-0.014c0.011-0.003,0.021-0.008,0.031-0.012c0.016-0.007,0.031-0.016,0.046-0.024c0.009-0.005,0.017-0.009,0.025-0.016c0.023-0.015,0.045-0.032,0.065-0.052l13.553-13.568c0,0,0,0,0,0c0.001,0,0.001-0.001,0.001-0.001l1.933-1.934C511.337,495.912,511.346,495.907,511.353,495.9z M510.298,490.3c1.356,1.356,1.63,3.331,0.713,4.618l-5.352-5.357C506.947,488.647,508.931,488.933,510.298,490.3z M495.525,510.47l-1.059-1.06l12.919-12.933l1.058,1.06L495.525,510.47z M491.893,511.104l-2.439-2.441l0.351-2.647l1.03,1.03c0.004,0.005,0.007,0.01,0.011,0.014c0.004,0.004,0.008,0.006,0.013,0.011l3.699,3.703L491.893,511.104z M493.832,508.773l-2.033-2.034l12.919-12.933l2.033,2.035L493.832,508.773z M491.164,506.104l-1.05-1.051l12.918-12.933l1.052,1.051L491.164,506.104z M489.306,509.785l1.458,1.459l-1.678,0.207L489.306,509.785z M509.079,496.9l-5.412-5.416l1.321-1.323l5.412,5.417L509.079,496.9z"/>
</svg>