<?xml version="1.0" encoding="UTF-8"?>
<svg width="30px" height="25.5px" viewBox="485 487.25 30 25.5" xml:space="preserve">
	<path d="M506.711,500.686c0.276-0.277,0.276-0.714,0-0.99c-0.269-0.277-0.713-0.277-0.981,0l-5.021,5.013v-16.562c0-0.386-0.309-0.702-0.694-0.702s-0.704,0.316-0.704,0.702v16.562l-5.011-5.013c-0.278-0.277-0.723-0.277-0.991,0c-0.276,0.276-0.276,0.713,0,0.99l6.212,6.21c0.267,0.269,0.713,0.269,0.989,0L506.711,500.686z M511.633,505.232c0-0.387,0.307-0.694,0.692-0.694c0.387,0,0.704,0.308,0.704,0.694v6.813c0,0.387-0.317,0.704-0.704,0.704h-24.633c-0.386,0-0.692-0.317-0.692-0.704v-6.813c0-0.387,0.307-0.694,0.692-0.694c0.386,0,0.704,0.308,0.704,0.694v6.121h23.236V505.232z" />
</svg>